<!DOCTYPE svg PUBLIC "-//W3C//DTD SVG 1.1//EN" "http://www.w3.org/Graphics/SVG/1.1/DTD/svg11.dtd">
<!-- Uploaded to: SVG Repo, www.svgrepo.com, Transformed by: SVG Repo Mixer Tools -->
<svg fill="#000000" width="64px" height="64px" viewBox="-2.4 -2.4 28.80 28.80" xmlns="http://www.w3.org/2000/svg" transform="rotate(270)matrix(-1, 0, 0, 1, 0, 0)">
<g id="SVGRepo_bgCarrier" stroke-width="0"/>
<g id="SVGRepo_tracerCarrier" stroke-linecap="round" stroke-linejoin="round" stroke="#edfe06" stroke-width="0.624"> <g id="Bookmark_Plus" data-name="Bookmark Plus"> <g> <path d="M17.6,21.938a1.482,1.482,0,0,1-1.011-.4l-4.251-3.9a.5.5,0,0,0-.678,0L7.41,21.538a1.5,1.5,0,0,1-2.517-1.1V4.563a2.5,2.5,0,0,1,2.5-2.5h9.214a2.5,2.5,0,0,1,2.5,2.5V20.435a1.483,1.483,0,0,1-.9,1.375A1.526,1.526,0,0,1,17.6,21.938ZM12,16.5a1.5,1.5,0,0,1,1.018.395L17.269,20.8a.5.5,0,0,0,.838-.368V4.563a1.5,1.5,0,0,0-1.5-1.5H7.393a1.5,1.5,0,0,0-1.5,1.5V20.435a.5.5,0,0,0,.839.368L10.983,16.9A1.5,1.5,0,0,1,12,16.5Z"/> <path d="M14,10.28H12.5v1.5a.5.5,0,0,1-1,0v-1.5H10a.5.5,0,0,1,0-1h1.5V7.78a.5.5,0,0,1,1,0v1.5H14A.5.5,0,0,1,14,10.28Z"/> </g> </g> </g>
<g id="SVGRepo_iconCarrier"> <g id="Bookmark_Plus" data-name="Bookmark Plus"> <g> <path d="M17.6,21.938a1.482,1.482,0,0,1-1.011-.4l-4.251-3.9a.5.5,0,0,0-.678,0L7.41,21.538a1.5,1.5,0,0,1-2.517-1.1V4.563a2.5,2.5,0,0,1,2.5-2.5h9.214a2.5,2.5,0,0,1,2.5,2.5V20.435a1.483,1.483,0,0,1-.9,1.375A1.526,1.526,0,0,1,17.6,21.938ZM12,16.5a1.5,1.5,0,0,1,1.018.395L17.269,20.8a.5.5,0,0,0,.838-.368V4.563a1.5,1.5,0,0,0-1.5-1.5H7.393a1.5,1.5,0,0,0-1.5,1.5V20.435a.5.5,0,0,0,.839.368L10.983,16.9A1.5,1.5,0,0,1,12,16.5Z"/> <path d="M14,10.28H12.5v1.5a.5.5,0,0,1-1,0v-1.5H10a.5.5,0,0,1,0-1h1.5V7.78a.5.5,0,0,1,1,0v1.5H14A.5.5,0,0,1,14,10.28Z"/> </g> </g> </g>
</svg>